<?xml version="1.0" encoding="utf-8"?>
<!-- Generator: Adobe Illustrator 27.0.1, SVG Export Plug-In . SVG Version: 6.00 Build 0)  -->
<svg version="1.1" id="Layer_1" xmlns="http://www.w3.org/2000/svg" xmlns:xlink="http://www.w3.org/1999/xlink" x="0px" y="0px"
	 viewBox="0 0 190.2 247.6" style="enable-background:new 0 0 190.2 247.6;" xml:space="preserve">
<style type="text/css">
	.st0{fill:#DA1608;}
	.st1{fill:#DA1609;}
	.st2{fill:#EF9B95;}
</style>
<g>
	<path class="st0" d="M186.7,154.2c-1.7-24-2.2-48.1-3.9-72.2c-1.5-21.8-3-43.6-3.5-65.5c-0.1-3,0.6-6.8-4.5-7
		c-7.6-0.3-15.4-2.2-22.8-1.2c-29.4,4.1-59,5.8-88.6,6.5c-20,0.5-36,6.1-48.2,22.4c-3.4,4.5-5.7,8-5.2,13.9
		C15.1,105,19.8,159,24.8,212.9c0.7,7.5-1.6,17.7,3.8,21.7c4.7,3.6,14.1,0.9,21.4,1c0.6,0,1.2,0.2,1.7,0.3h0c0,0,0,0,0,0
		c4.5-2.6,11.4,1.6,14.3-3.3c2.5-4.3-0.8-9.7-1.5-14.6c-3.8-26.8-8.3-53.6-11.8-80.4c-2.3-18-4.5-35.9-7.5-53.8
		c-0.7-4.4-1.5-5.5-6-3.8c-4.3,1.6-8.8,3-13.7,2.3c-2.3-0.3-4.3-1.1-4.2-3.4c0-2.4,1.9-3.5,4.3-2.9c4.5,1.2,8.5-1.1,12.7-1.9
		c3.3-0.6,5.1-1.1,3.6-5.3c-1-3-1.9-8,3.1-8.5c4.3-0.4,5.3,3.7,5.4,7.5c0,1.1,0.3,2.2,0.6,4c0,0,0.1,0.1,0.1,0.1
		C64.6,64.9,78,59.2,91,49.7c0-0.1,0-0.2-0.1-0.3c-0.1-0.3-0.1-0.6-0.2-0.8c-11.1-2.1-20.9-3.2-30.7,0.5c-2,0.8-4.1,2.1-5.4-0.1
		c-1.5-2.7,0.5-4.7,2.8-5.5c14.2-4.5,28.8-5.6,42.9-0.4c6,2.2,2.5,7.1-0.6,9.8c-4.9,4-10.4,7.3-16.3,11.4c9.9,7.3,12.3,18.3,12.4,29
		c0.2,28,4.5,55.3,9.3,82.7c1.9,10.9,12,19.8,27.9,23c7.1,1.4,14.3,2.3,21.5,3.5c8.3-9.4,16.5-18.8,24.8-28.2
		C184.5,168.4,187.2,162.4,186.7,154.2z M145,139.3c-3-0.2-3.5-2.5-3.2-5c0.2-1.9,0.2-4.3,3.1-4.2c3.9,0.1,2.8,3.7,3.9,5.6
		C148.9,138.4,147.2,139.5,145,139.3z"/>
	<path class="st1" d="M144.2,211.4c-1,0.6-2.1,1-3,1.8c-20.8,17-44.5,24.2-71.2,21.1c-1.2-12.2-2.1-24.5-3.7-36.7
		c-3.1-24-6.9-48-9.9-72.1c-1.9-15.1-2.8-30.3-4.3-45.5c-0.4-3.4,1.4-5.9,4-5.4c6.1,1.3,10.9-2.3,16.2-3.4
		c6.5-1.4,10.9,0.9,12.8,7.1c2.6,8.6,5.3,17.3,6.1,26.4c1.8,19.8,3.4,39.7,5.3,59.5c2.2,23.6,12.6,36.6,33,41.4
		c4.5,1.1,9.2,1.5,13.8,2.2C146.7,208.3,144.8,210,144.2,211.4z"/>
	<path class="st2" d="M139.2,231.2c8.1-5.4,16.2-10.7,24.3-16.1c-5.6,9.1-15.1,12.4-22.9,18.2C140.1,232.6,139.7,231.9,139.2,231.2z
		"/>
</g>
<image style="overflow:visible;enable-background:new    ;" width="109" height="140" xlink:href="5EEC6C53.png"  transform="matrix(1.7822 0 0 1.7822 -587.7112 -124.7539)">
</image>
</svg>
