<?xml version="1.0" encoding="utf-8"?>
<!-- Generator: Adobe Illustrator 27.0.1, SVG Export Plug-In . SVG Version: 6.00 Build 0)  -->
<svg version="1.1" id="Layer_1" xmlns="http://www.w3.org/2000/svg" xmlns:xlink="http://www.w3.org/1999/xlink" x="0px" y="0px"
	 viewBox="0 0 205.1 260.6" style="enable-background:new 0 0 205.1 260.6;" xml:space="preserve">
<style type="text/css">
	.st0{fill:#DA1608;}
	.st1{fill:#DA1609;}
	.st2{fill:#EF9B95;}
</style>
<g>
	<path d="M83.6,89.9c19.9,0,28.1,11.9,31.6,28.2c3.4,15.6,4.4,31.5,5.7,47.3c1.2,14,3.6,27.6,11.4,39.7c2,3,3.5,6.5,7.3,7.8
		c1.7,0.6,3.5,1,2.3,3.3c-1.1,2.1-3,2.6-5.1,1.4c-4.1-2.4-7-6-9.3-10.2c-6.8-12.3-8.8-25.9-11.1-39.5c-2.7-16-3.5-32.3-6.8-48.2
		c-1.4-7-4.2-13.3-8.9-18.6c-3.6-4-8.6-4.9-13.6-5.2c-5.1-0.3-10.3,0-15.4,0c-2.5,0-3.6,1.1-3.3,3.8c3.4,26,4.2,52.2,6.3,78.3
		c0.5,6.1,0.5,12.3,0.5,18.4c0,2-0.3,4.3-2.9,4.5c-2.5,0.1-3.3-2.1-3.5-4.1c-0.4-3.6-0.6-7.3-0.4-10.9c1-15.2-1.5-30.1-2.9-45.1
		c-1-10.9-1.8-21.8-2.9-32.7c-0.4-4.1,0.6-8.6-4.4-11.2c-2-1-1.2-3.6,0.5-4.6c3.1-1.9,3-4.4,2.2-7.3c-1.3-4.9,0.4-8.5,5.1-10.5
		c8.3-3.5,16.8-5.3,25.7-3c5.1,1.4,6.2,4.5,3.3,9C92.3,84.9,87.6,86.9,83.6,89.9z M66.3,83.6c1.3,1.6-1.2,6.7,3.9,5.7
		c7.1-1.4,13.5-4.6,19-9.3c2.4-2,2.8-3.8-1-4.5c-7-1.4-13.5,0.4-19.8,3.1C66.4,79.4,66,81.2,66.3,83.6z"/>
	<path d="M158.3,237.4c-22.2-1-44.4-0.9-66.6,0.8c-14.4,1.1-28.8,1.4-43.2,2.4c-5.9,0.4-11.5-1.2-17.3-1.5c-2.6-0.1-2.8-2.4-3.1-4.4
		c-1.7-11.2-2.1-22.4-3.2-33.7c-2.7-27.9-3.1-55.9-4.6-83.9c-0.7-13.4-1-26.8-2.2-40.1c-1.1-12.4-3.6-24.6-3.2-37.1c0-0.5,0-1,0-1.5
		c0.2-2.5-0.8-6.2,3.1-6.1c3.4,0.1,3.2,3.7,3.3,6.3c0.3,9.8-0.4,19.6,0.7,29.4c3.4,29.2,5.2,58.4,5.7,87.8c0.3,16,0.6,32.2,2.7,48.1
		c1,7.2,2.5,14.4,3.1,21.6c0.5,5.7,3.8,7.5,8.6,8.5c9.2,1.8,18.6,1.6,27.8,0.8c14.2-1.4,28.5-1.7,42.7-1.9c22.9-0.3,45.8-1,68.7-1.5
		c2,0,4,0.1,5.9,0.4c1.5,0.2,3,1,3,2.8c0,2.2-1.8,2.7-3.5,2.7c-4.7,0.1-9.3,0.1-14,0.1C168,237.4,163.1,237.4,158.3,237.4z"/>
	<path d="M156.6,89.4c-1.4,20.4,3.8,35.5,11,50.4c7.1,14.7,14.6,29.4,17,46c1.6,11.3-1.6,21.3-6.8,30.9c-1.2,2.3-3.3,3.7-6.3,2.8
		c-1.3-0.4-2.5-1.1-2.7-2.6c-0.3-1.7,0.7-2.5,2.2-2.7c2.4-0.3,3.1-2.2,3.9-4.1c4.3-9.6,4.2-19.6,2.8-29.8
		c-2-15.3-9.1-28.6-15.6-42.2c-7-14.7-12.2-30.2-12.6-46.7c-0.2-9.6,3.8-18.2,8.6-26.2c4.2-7,15.5-6.1,21.4,1.4
		c2.4,3.1,4,6.9,5.8,10.4c1,1.9,0.4,3.6-1.4,4.7c-1.8,1.1-3.3,0.2-4.4-1.1c-1-1.1-1.7-2.5-2.2-3.8c-0.8-1.8-1.3-3.8-2-5.6
		c-1.5-3.6-4.5-5.4-8.2-5.5c-3.6-0.1-5.1,2.6-6.3,5.5C158.1,78.2,157.2,85.6,156.6,89.4z"/>
	<path d="M125.4,27c-22.2-0.7-46.4,1.4-70.6,2.8c-7.1,0.4-14.3,0.3-21.4,0.3c-1.8,0-4.2,0.1-4.1-2.4c0.1-2.4,2.5-2.3,4.3-2.3
		C55,26,76.3,23,97.6,22c18.7-0.9,37.5-2.7,56.3-1.8c3.2,0.2,8.5-0.4,8.3,4.2c-0.2,4.7-5.3,2.5-8.2,2.6
		C145.1,27.2,136.3,27,125.4,27z"/>
</g>
</svg>
