<?xml version="1.0" encoding="utf-8"?>
<!-- Generator: Adobe Illustrator 27.0.1, SVG Export Plug-In . SVG Version: 6.00 Build 0)  -->
<svg version="1.1" id="Layer_1" xmlns="http://www.w3.org/2000/svg" xmlns:xlink="http://www.w3.org/1999/xlink" x="0px" y="0px"
	 viewBox="0 0 219.7 230.8" style="enable-background:new 0 0 219.7 230.8;" xml:space="preserve">
<style type="text/css">
	.st0{fill:#DA1608;}
	.st1{fill:#DA1609;}
	.st2{fill:#EF9B95;}
</style>
<g>
	<path d="M91.7,62.2c-5.2-0.5-9.5-0.6-13.8,0.9c-2.3,0.8-4.5,0.7-5.2-2c-0.7-2.6,1.5-3.3,3.4-4c6.5-2.2,13-2.4,19.6-0.6
		c5,1.3,6,5.1,2.4,8.9c-3.4,3.6-8.2,4.8-12.9,7.2c13.6,7.5,13.7,21.2,16.1,33.9c1.8,9.3,0.3,18.8,1.8,28.2
		c2.1,12.9,8.3,19.7,21,22.1c1.7,0.3,2.9,0.8,2.8,2.7c-0.2,2-1.7,2.8-3.4,2.9c-5.2,0.3-9.6-1.7-13.6-4.9
		c-9.4-7.6-11.1-18.1-11.1-29.1c0-13.8-0.2-27.5-5.1-40.6c-3.4-9.2-10.5-13.2-20-11c-2.5,0.6-3.6,2.1-3.6,4.6
		c0.1,9.9-0.1,19.8,0.8,29.7c1.4,16.3,1.7,32.7,1.5,49.1c0,1.5-0.2,3.2-2.2,3.3c-2.4,0.1-2.5-1.8-2.5-3.5
		c-0.3-10.1-0.6-20.2-0.9-30.2c-0.5-17.9-1.1-35.7-1.5-53.6c-0.1-4.6,0.3-9.2,0.6-13.9c0.1-1.5,0.3-3.2,2.3-3.2c2,0,2,1.7,2.3,3.2
		c0.6,2.8-1.8,6.8,1.4,8c2,0.8,5.2-1.4,7.8-2.5C83.5,66.4,87.6,65.2,91.7,62.2z"/>
	<path d="M25.1,163c-0.8-31-1.7-66.4-7.3-101.5c-1.5-9.7-2.1-19.4-1.8-29.1c0-1.3,0-2.7,0.3-4c0.2-1.2,0.9-2.4,2.3-2.2
		C20,26.5,20,27.7,20,29c0.3,17.1,3.6,33.8,5.2,50.7c1.9,20.6,4.1,41.1,3.5,61.9c-0.5,19.2,0.7,38.4,3.1,57.4
		c0.3,2.8,1.4,5.4,2.1,8.2c0.6,2.1,0.8,4.3-1.7,5c-2.5,0.7-2.7-1.8-3.2-3.5C24.2,195.2,24.8,181.3,25.1,163z"/>
	<path d="M195.2,136.1c0.4-18.9,0-37.8-1.1-56.6c-0.8-14.9-2.4-29.7-3.5-44.5c-0.2-3-0.3-6-0.1-8.9c0.1-1.7,0.7-3.5,2.9-3.2
		c1.9,0.3,1.7,2,1.9,3.5c0.9,12.4,2,24.7,2.8,37.1c1.4,22,2.3,44,1.3,66c-0.9,18.5,0.2,37.1,1.2,55.6c0.3,5.8,0.8,11.6,1.2,17.3
		c0.1,1.6-0.4,3.2,1.1,4.6c1.2,1.1,1.3,2.7,0.3,4.1c-0.6,0.8-1.7,1.2-2.7,0.9c-1.7-0.6-1.8-1.9-2-3.5
		C195.4,184.3,194.7,160.3,195.2,136.1z"/>
	<path d="M138,75.8c0.5,8.3,3.5,15.8,7.2,23c4.3,8.6,9.5,16.8,11.2,26.4c1.3,7.2,0.9,14.5,0.6,21.8c-0.1,3.5-2.4,6.2-5.4,7.9
		c-5.4,3-11.1,5.3-17.2,6.2c-2.1,0.3-4.9,0.6-5.1-2.4c-0.2-2.6,2.4-2.8,4.4-2.8c5.7-0.1,10.6-2.6,15.5-4.9c4.3-2.1,5.8-7.7,3.9-15.1
		c-2.7-10.8-6.3-21.2-11.5-31.2c-5-9.5-9.6-19.4-9-30.6c0.4-8.2,3.2-15.5,7.9-22.1c2.7-3.9,6.4-5.5,11.2-4.7
		c5.2,0.9,8.5,4.2,11.1,8.4c0.7,1,0.6,2.3-0.4,3.2c-1.3,1.1-2.5,0.5-3.5-0.5c-0.2-0.2-0.5-0.5-0.7-0.7c-6.5-8.9-13.3-6.8-17,3.6
		C139.4,66,137.9,70.7,138,75.8z"/>
	<path d="M188.2,205.4c-7.2-0.6-14.7-2.2-22.3-2c-23.2,0.6-46.3,1-69.5,2.2c-11.5,0.6-23,2.8-34.5,4.2c-2.3,0.3-4.6,0.5-6.9,0.5
		c-1.5,0-3.3,0-3.3-2.1c0-1.6,1.5-2,2.8-2.3c8.2-1.9,16.5-3.3,24.9-4.2c16.8-1.7,33.7-1,50.6-1c14.6,0,29.1-1.7,43.7-1.1
		c7,0.3,14,2.9,21.1,0.6c0.9-0.3,1.5,0.4,1.7,1.4c0.2,1.1-0.4,1.9-1.2,2.5C193.3,205.8,190.8,205.2,188.2,205.4z"/>
	<path d="M141.1,23.1c-22.5,1-45.3,2.2-68.1,2.9c-6.9,0.2-13.9-0.5-20.8-0.9c-1.5-0.1-3.4-0.1-3.5-2c0-2.3,2.1-1.6,3.4-1.6
		c24.4-0.3,48.7-0.6,73.1-0.9c14.1-0.2,28.1-0.8,42.2-1.9c3.3-0.2,6.6-0.2,9.9-0.1c1.6,0.1,4.4-0.8,4.4,1.7c0,2.4-2.8,1.8-4.5,1.8
		C165.3,21.8,153.5,24.2,141.1,23.1z"/>
</g>
</svg>
