<svg width="350" height="215" viewBox="0 0 350 215" fill="none" xmlns="http://www.w3.org/2000/svg">
<path d="M34.96 180.72L15.68 138.8H16.48L13.76 165.92C13.4933 168.747 13.4667 170.933 13.68 172.48C13.8933 173.973 14.4267 175.04 15.28 175.68C16.1867 176.267 17.4133 176.64 18.96 176.8C19.12 177.333 19.2267 177.947 19.28 178.64C19.3333 179.333 19.36 179.867 19.36 180.24C18.08 180.133 16.6133 180.053 14.96 180C13.36 180 11.9733 180 10.8 180C10.0533 180 9.17333 180 8.16 180C7.2 180.053 6.24 180.08 5.28 180.08C4.37333 180.133 3.54667 180.187 2.8 180.24C2.8 179.867 2.82667 179.333 2.88 178.64C2.93333 177.947 3.04 177.333 3.2 176.8C4.64 176.64 5.76 176.293 6.56 175.76C7.41333 175.173 8.08 174.08 8.56 172.48C9.04 170.88 9.41333 168.453 9.68 165.2L12.24 136.72C12.4 134.8 12.32 133.307 12 132.24C11.7333 131.12 11.1733 130.32 10.32 129.84C9.52 129.36 8.37333 129.12 6.88 129.12C6.72 128.587 6.61333 128 6.56 127.36C6.50667 126.72 6.48 126.16 6.48 125.68C7.01333 125.733 7.62667 125.787 8.32 125.84C9.01333 125.84 9.73333 125.867 10.48 125.92C11.2267 125.92 11.92 125.92 12.56 125.92C13.2533 125.92 13.92 125.92 14.56 125.92C15.2533 125.867 15.92 125.84 16.56 125.84C17.2533 125.787 17.9467 125.733 18.64 125.68L39.6 172H37.84L56.08 125.68C56.72 125.733 57.3867 125.787 58.08 125.84C58.7733 125.84 59.4667 125.867 60.16 125.92C60.9067 125.92 61.6267 125.92 62.32 125.92C63.0133 125.92 63.68 125.92 64.32 125.92C65.0133 125.867 65.68 125.84 66.32 125.84C67.0133 125.787 67.7067 125.733 68.4 125.68C68.4 126.213 68.3733 126.773 68.32 127.36C68.2667 127.947 68.16 128.533 68 129.12C66.1333 129.12 64.6667 129.68 63.6 130.8C62.5867 131.867 62.24 134 62.56 137.2L65.44 166.56C65.7067 169.173 66.0533 171.2 66.48 172.64C66.9067 174.08 67.4933 175.093 68.24 175.68C69.04 176.267 70.0533 176.613 71.28 176.72C71.44 177.253 71.5467 177.84 71.6 178.48C71.6533 179.12 71.68 179.707 71.68 180.24C71.04 180.187 70.32 180.133 69.52 180.08C68.72 180.08 67.8667 180.053 66.96 180C66.1067 180 65.2533 180 64.4 180C63.6 180 62.8267 180 62.08 180C61.12 180 60.0533 180 58.88 180C57.7067 180.053 56.5333 180.08 55.36 180.08C54.24 180.133 53.2267 180.187 52.32 180.24C52.32 179.76 52.3467 179.2 52.4 178.56C52.5067 177.92 52.64 177.333 52.8 176.8C54.5067 176.64 55.7333 176.293 56.48 175.76C57.28 175.227 57.7333 174.32 57.84 173.04C58 171.76 57.9467 169.947 57.68 167.6L54.64 138.48H55.52L38.24 180.16C37.76 180.373 37.2533 180.507 36.72 180.56C36.1867 180.667 35.6 180.72 34.96 180.72ZM77.4131 180.24C77.4131 179.707 77.4398 179.147 77.4931 178.56C77.5465 177.92 77.6531 177.333 77.8131 176.8C79.9465 176.8 81.3865 176.32 82.1331 175.36C82.9331 174.347 83.3331 172.507 83.3331 169.84V154C83.3331 152.72 83.1998 151.68 82.9331 150.88C82.7198 150.027 82.1865 149.387 81.3331 148.96C80.4798 148.533 79.1465 148.32 77.3331 148.32C77.3331 147.733 77.3865 147.2 77.4931 146.72C77.5998 146.24 77.7865 145.787 78.0531 145.36C78.8531 145.36 79.9731 145.227 81.4131 144.96C82.9065 144.693 84.3465 144.347 85.7331 143.92C87.1198 143.493 88.1331 143.067 88.7731 142.64C89.2531 142.8 89.6531 143.12 89.9731 143.6C90.3465 144.08 90.5331 144.827 90.5331 145.84V169.84C90.5331 172.507 90.8798 174.347 91.5731 175.36C92.3198 176.32 93.5465 176.8 95.2531 176.8C95.4131 177.333 95.5198 177.947 95.5731 178.64C95.6265 179.333 95.6531 179.867 95.6531 180.24C94.7465 180.187 93.7865 180.133 92.7731 180.08C91.7598 180.08 90.7198 180.053 89.6531 180C88.6398 180 87.6265 180 86.6131 180C85.5998 180 84.5331 180 83.4131 180C82.3465 180.053 81.3065 180.08 80.2931 180.08C79.2798 180.133 78.3198 180.187 77.4131 180.24ZM86.2931 133.6C84.9598 133.6 83.8398 133.147 82.9331 132.24C82.0265 131.333 81.5731 130.24 81.5731 128.96C81.5731 127.52 82.0531 126.347 83.0131 125.44C83.9731 124.533 85.0665 124.08 86.2931 124.08C87.7331 124.08 88.8798 124.533 89.7331 125.44C90.6398 126.347 91.0931 127.52 91.0931 128.96C91.0931 130.187 90.6131 131.28 89.6531 132.24C88.7465 133.147 87.6265 133.6 86.2931 133.6ZM101.396 180.24C101.396 179.707 101.422 179.147 101.476 178.56C101.529 177.92 101.636 177.333 101.796 176.8C103.929 176.8 105.369 176.32 106.116 175.36C106.916 174.347 107.316 172.507 107.316 169.84V134C107.316 132.72 107.182 131.68 106.916 130.88C106.702 130.027 106.169 129.387 105.316 128.96C104.462 128.533 103.129 128.32 101.316 128.32C101.316 127.733 101.369 127.2 101.476 126.72C101.582 126.24 101.769 125.787 102.036 125.36C102.836 125.36 103.956 125.227 105.396 124.96C106.889 124.693 108.329 124.347 109.716 123.92C111.102 123.493 112.116 123.067 112.756 122.64C113.236 122.8 113.636 123.12 113.956 123.6C114.329 124.08 114.516 124.827 114.516 125.84V169.84C114.516 172.507 114.862 174.347 115.556 175.36C116.302 176.32 117.529 176.8 119.236 176.8C119.396 177.333 119.502 177.947 119.556 178.64C119.609 179.333 119.636 179.867 119.636 180.24C118.729 180.187 117.769 180.133 116.756 180.08C115.742 180.08 114.702 180.053 113.636 180C112.622 180 111.609 180 110.596 180C109.582 180 108.516 180 107.396 180C106.329 180.053 105.289 180.08 104.276 180.08C103.262 180.133 102.302 180.187 101.396 180.24ZM142.582 180.72C138.795 180.72 135.649 179.867 133.142 178.16C130.635 176.453 128.742 174.16 127.462 171.28C126.235 168.347 125.622 165.147 125.622 161.68C125.622 158.267 126.289 155.12 127.622 152.24C128.955 149.36 130.849 147.04 133.302 145.28C135.809 143.52 138.769 142.64 142.182 142.64C145.649 142.64 148.422 143.387 150.502 144.88C152.635 146.373 154.209 148.373 155.222 150.88C156.289 153.387 156.929 156.16 157.142 159.2C156.929 160.267 156.529 161.173 155.942 161.92C155.035 161.92 153.675 161.92 151.862 161.92C150.049 161.92 147.995 161.947 145.702 162C143.409 162 141.062 162.053 138.662 162.16C136.262 162.213 133.995 162.293 131.862 162.4V158.32H148.822C148.822 154.8 148.182 151.947 146.902 149.76C145.622 147.573 143.809 146.48 141.462 146.48C140.182 146.48 138.929 146.88 137.702 147.68C136.475 148.427 135.462 149.787 134.662 151.76C133.862 153.68 133.462 156.427 133.462 160C133.462 162.613 133.782 165.173 134.422 167.68C135.115 170.133 136.289 172.187 137.942 173.84C139.649 175.44 142.049 176.24 145.142 176.24C146.902 176.24 148.635 175.84 150.342 175.04C152.049 174.24 153.569 173.093 154.902 171.6C155.329 171.813 155.729 172.187 156.102 172.72C156.529 173.2 156.769 173.653 156.822 174.08C155.009 176.48 152.902 178.187 150.502 179.2C148.155 180.213 145.515 180.72 142.582 180.72ZM188.713 145.44C188.659 146.72 188.606 148.08 188.553 149.52C188.553 150.96 188.659 152.373 188.873 153.76C188.339 154.08 187.726 154.32 187.033 154.48C186.339 154.64 185.619 154.72 184.873 154.72C184.766 153.227 184.313 151.813 183.513 150.48C182.766 149.147 181.753 148.053 180.473 147.2C179.193 146.347 177.673 145.92 175.913 145.92C174.259 145.92 172.926 146.32 171.913 147.12C170.953 147.92 170.473 148.987 170.473 150.32C170.473 151.227 170.659 152.027 171.033 152.72C171.459 153.413 172.339 154.16 173.673 154.96C175.059 155.707 177.166 156.64 179.993 157.76C182.873 158.827 185.139 159.893 186.793 160.96C188.446 162.027 189.619 163.227 190.313 164.56C191.006 165.893 191.353 167.52 191.353 169.44C191.353 171.68 190.713 173.653 189.433 175.36C188.153 177.067 186.393 178.4 184.153 179.36C181.966 180.267 179.486 180.72 176.713 180.72C173.513 180.72 170.953 180.48 169.033 180C167.166 179.467 165.326 178.72 163.513 177.76C163.619 176.907 163.673 175.867 163.673 174.64C163.726 173.413 163.753 172.187 163.753 170.96C163.753 169.733 163.699 168.693 163.593 167.84C164.019 167.52 164.606 167.307 165.353 167.2C166.153 167.04 166.953 166.96 167.753 166.96C168.179 170.32 169.219 172.827 170.872 174.48C172.526 176.133 174.739 176.96 177.513 176.96C179.699 176.96 181.379 176.48 182.553 175.52C183.779 174.56 184.393 173.333 184.393 171.84C184.393 170.88 184.153 170.053 183.673 169.36C183.246 168.667 182.419 167.973 181.193 167.28C179.966 166.587 178.153 165.76 175.753 164.8C172.873 163.627 170.553 162.533 168.793 161.52C167.086 160.507 165.833 159.307 165.033 157.92C164.286 156.533 163.913 154.773 163.913 152.64C163.913 150.933 164.339 149.467 165.193 148.24C166.046 146.96 167.139 145.92 168.473 145.12C169.859 144.267 171.326 143.653 172.873 143.28C174.419 142.853 175.859 142.64 177.193 142.64C179.593 142.64 181.699 142.88 183.513 143.36C185.326 143.84 187.059 144.533 188.713 145.44ZM211.171 180.72C208.025 180.72 205.678 179.92 204.131 178.32C202.638 176.667 201.891 174.027 201.891 170.4V148.72C201.091 148.453 200.265 148.24 199.411 148.08C198.558 147.867 197.465 147.733 196.131 147.68C196.131 146.987 196.185 146.4 196.291 145.92C196.398 145.387 196.585 144.8 196.851 144.16H201.891V133.6C202.958 133.333 203.998 132.907 205.011 132.32C206.078 131.733 207.011 131.093 207.811 130.4C208.345 130.613 208.691 130.933 208.851 131.36C209.011 131.787 209.091 132.853 209.091 134.56V144.16H219.491C219.491 144.693 219.438 145.28 219.331 145.92C219.225 146.507 219.038 147.093 218.771 147.68C216.851 147.733 215.091 147.867 213.491 148.08C211.891 148.24 210.425 148.453 209.091 148.72V168.72C209.091 170.48 209.278 171.947 209.651 173.12C210.025 174.24 210.558 175.067 211.251 175.6C211.945 176.133 212.771 176.4 213.731 176.4C214.851 176.4 215.811 176.24 216.611 175.92C217.465 175.6 218.265 175.12 219.011 174.48C219.705 175.28 220.105 176.16 220.211 177.12C219.358 178.133 218.051 178.987 216.291 179.68C214.585 180.373 212.878 180.72 211.171 180.72ZM243.077 180.72C239.45 180.72 236.277 179.947 233.557 178.4C230.837 176.8 228.73 174.587 227.237 171.76C225.744 168.88 224.997 165.52 224.997 161.68C224.997 158.053 225.77 154.8 227.317 151.92C228.864 149.04 230.997 146.773 233.717 145.12C236.437 143.467 239.557 142.64 243.077 142.64C246.864 142.64 250.09 143.44 252.757 145.04C255.477 146.64 257.557 148.88 258.997 151.76C260.437 154.587 261.157 157.893 261.157 161.68C261.157 165.307 260.384 168.56 258.837 171.44C257.344 174.32 255.237 176.587 252.517 178.24C249.85 179.893 246.704 180.72 243.077 180.72ZM243.717 176.88C246.917 176.88 249.29 175.573 250.837 172.96C252.384 170.293 253.157 166.853 253.157 162.64C253.157 159.333 252.65 156.48 251.637 154.08C250.677 151.627 249.37 149.76 247.717 148.48C246.064 147.147 244.25 146.48 242.277 146.48C239.184 146.48 236.864 147.733 235.317 150.24C233.824 152.747 233.077 156 233.077 160C233.077 163.573 233.504 166.64 234.357 169.2C235.264 171.707 236.517 173.627 238.117 174.96C239.717 176.24 241.584 176.88 243.717 176.88ZM273.255 162.88V154C273.255 152.72 273.122 151.68 272.855 150.88C272.588 150.08 272.028 149.467 271.175 149.04C270.322 148.613 269.015 148.373 267.255 148.32C267.255 147.733 267.308 147.2 267.415 146.72C267.522 146.24 267.708 145.787 267.975 145.36C269.628 145.253 271.522 144.933 273.655 144.4C275.788 143.867 277.468 143.28 278.695 142.64C279.175 142.8 279.575 143.147 279.895 143.68C280.268 144.16 280.455 144.987 280.455 146.16L273.255 162.88ZM304.135 169.84C304.135 172.613 304.508 174.48 305.255 175.44C306.055 176.347 307.255 176.8 308.855 176.8C309.015 177.28 309.122 177.787 309.175 178.32C309.228 178.853 309.255 179.493 309.255 180.24C308.082 180.133 306.748 180.053 305.255 180C303.762 180 302.188 180 300.535 180C299.468 180 298.348 180 297.175 180C296.002 180.053 294.882 180.08 293.815 180.08C292.802 180.133 291.868 180.187 291.015 180.24C291.015 179.493 291.042 178.853 291.095 178.32C291.148 177.733 291.255 177.227 291.415 176.8C293.335 176.8 294.722 176.32 295.575 175.36C296.482 174.347 296.935 172.507 296.935 169.84V157.68C296.935 153.893 296.242 151.333 294.855 150C293.468 148.613 291.682 147.92 289.495 147.92C288.108 147.92 286.722 148.373 285.335 149.28C283.948 150.133 282.775 151.547 281.815 153.52C280.908 155.44 280.455 158.027 280.455 161.28V169.84C280.455 172.507 280.855 174.347 281.655 175.36C282.455 176.32 283.895 176.8 285.975 176.8C286.135 177.28 286.242 177.787 286.295 178.32C286.348 178.853 286.375 179.493 286.375 180.24C285.628 180.187 284.722 180.133 283.655 180.08C282.588 180.08 281.468 180.053 280.295 180C279.122 180 277.975 180 276.855 180C275.788 180 274.668 180 273.495 180C272.322 180.053 271.202 180.08 270.135 180.08C269.068 180.133 268.135 180.187 267.335 180.24C267.335 179.493 267.362 178.853 267.415 178.32C267.468 177.733 267.575 177.227 267.735 176.8C269.815 176.8 271.255 176.32 272.055 175.36C272.855 174.347 273.255 172.507 273.255 169.84V154L280.455 146.16C280.455 146.8 280.428 147.52 280.375 148.32C280.322 149.12 280.162 149.973 279.895 150.88C280.055 150.613 280.215 150.32 280.375 150C280.535 149.627 280.775 149.227 281.095 148.8C282.002 147.573 283.442 146.32 285.415 145.04C287.442 143.707 289.868 143.04 292.695 143.04C294.722 143.04 296.588 143.467 298.295 144.32C300.055 145.12 301.468 146.48 302.535 148.4C303.602 150.267 304.135 152.827 304.135 156.08V169.84ZM332.269 180.72C328.483 180.72 325.336 179.867 322.829 178.16C320.323 176.453 318.429 174.16 317.149 171.28C315.923 168.347 315.309 165.147 315.309 161.68C315.309 158.267 315.976 155.12 317.309 152.24C318.643 149.36 320.536 147.04 322.989 145.28C325.496 143.52 328.456 142.64 331.869 142.64C335.336 142.64 338.109 143.387 340.189 144.88C342.323 146.373 343.896 148.373 344.909 150.88C345.976 153.387 346.616 156.16 346.829 159.2C346.616 160.267 346.216 161.173 345.629 161.92C344.723 161.92 343.363 161.92 341.549 161.92C339.736 161.92 337.683 161.947 335.389 162C333.096 162 330.749 162.053 328.349 162.16C325.949 162.213 323.683 162.293 321.549 162.4V158.32H338.509C338.509 154.8 337.869 151.947 336.589 149.76C335.309 147.573 333.496 146.48 331.149 146.48C329.869 146.48 328.616 146.88 327.389 147.68C326.163 148.427 325.149 149.787 324.349 151.76C323.549 153.68 323.149 156.427 323.149 160C323.149 162.613 323.469 165.173 324.109 167.68C324.803 170.133 325.976 172.187 327.629 173.84C329.336 175.44 331.736 176.24 334.829 176.24C336.589 176.24 338.323 175.84 340.029 175.04C341.736 174.24 343.256 173.093 344.589 171.6C345.016 171.813 345.416 172.187 345.789 172.72C346.216 173.2 346.456 173.653 346.509 174.08C344.696 176.48 342.589 178.187 340.189 179.2C337.843 180.213 335.203 180.72 332.269 180.72Z" fill="#444444"/>
<path d="M216.135 12.8717C219.544 13.3327 226.875 9.81747 221.171 7.47143C217.46 5.14681 215.2 1.77888 213.641 6.10564C211.912 9.41397 202.839 8.26165 203.72 9.71643C206.474 13.1571 202.449 11.0211 216.135 12.8717Z" fill="#FF4D00"/>
<path d="M210.982 17.0906C218.563 18.1835 229.465 17.0906 221.284 23.9208C218.629 26.1374 192.11 32.27 191.183 25.3664C190.316 18.9131 180.323 16.9682 181.56 15.7251C187.684 11.6421 188.161 12.9842 210.982 17.0906Z" fill="#FF4D00"/>
<path d="M178.53 74.8836C178.53 88.755 166.819 100 152.372 100C137.925 100 130.422 94.9727 126.214 74.8836C121.48 61.547 130.674 28.1215 152.372 49.7672C160.809 56.6167 178.53 61.0122 178.53 74.8836Z" fill="#FF4D00"/>
<path d="M206.255 34.9359C215.676 43.0829 211.513 48.1503 196.526 50.8402C181.54 53.5302 154.318 58.7038 151.673 43.4646C149.027 28.2254 147.003 16.5657 163.471 16.1196C169.161 16.3203 164.533 22.2396 206.255 34.9359Z" fill="#FF4D00"/>
</svg>
